<svg xmlns="http://www.w3.org/2000/svg" version="1.1" xmlns:xlink="http://www.w3.org/1999/xlink" xmlns:svgjs="http://svgjs.com/svgjs" width="1431" height="560" preserveAspectRatio="none" viewBox="0 0 1431 560"><g mask="url(&quot;#SvgjsMask1000&quot;)" fill="none"><rect width="1431" height="560" x="0" y="0" fill="rgba(255, 255, 255, 1)"></rect><path d="M842 488L1087 243" stroke-width="8" stroke="url(#SvgjsLinearGradient1001)" stroke-linecap="round" class="TopRight"></path><path d="M17 34L-286 337" stroke-width="10" stroke="url(#SvgjsLinearGradient1002)" stroke-linecap="round" class="BottomLeft"></path><path d="M1186 511L1475 222" stroke-width="6" stroke="url(#SvgjsLinearGradient1002)" stroke-linecap="round" class="BottomLeft"></path><path d="M1068 187L689 566" stroke-width="6" stroke="url(#SvgjsLinearGradient1003)" stroke-linecap="round" class="BottomLeft"></path><path d="M225 181L-147 553" stroke-width="8" stroke="url(#SvgjsLinearGradient1004)" stroke-linecap="round" class="TopRight"></path><path d="M736 219L901 54" stroke-width="6" stroke="url(#SvgjsLinearGradient1001)" stroke-linecap="round" class="TopRight"></path><path d="M234 152L12 374" stroke-width="6" stroke="url(#SvgjsLinearGradient1005)" stroke-linecap="round" class="TopRight"></path><path d="M1321 97L1120 298" stroke-width="6" stroke="url(#SvgjsLinearGradient1005)" stroke-linecap="round" class="TopRight"></path><path d="M1277 338L1129 486" stroke-width="10" stroke="url(#SvgjsLinearGradient1002)" stroke-linecap="round" class="BottomLeft"></path><path d="M928 360L1190 98" stroke-width="8" stroke="url(#SvgjsLinearGradient1004)" stroke-linecap="round" class="TopRight"></path><path d="M764 75L933 -94" stroke-width="8" stroke="url(#SvgjsLinearGradient1004)" stroke-linecap="round" class="TopRight"></path><path d="M812 325L603 534" stroke-width="10" stroke="url(#SvgjsLinearGradient1002)" stroke-linecap="round" class="BottomLeft"></path><path d="M253 466L-60 779" stroke-width="10" stroke="url(#SvgjsLinearGradient1006)" stroke-linecap="round" class="BottomLeft"></path><path d="M208 541L-63 812" stroke-width="6" stroke="url(#SvgjsLinearGradient1004)" stroke-linecap="round" class="TopRight"></path><path d="M759 360L553 566" stroke-width="8" stroke="url(#SvgjsLinearGradient1004)" stroke-linecap="round" class="TopRight"></path><path d="M450 378L88 740" stroke-width="6" stroke="url(#SvgjsLinearGradient1006)" stroke-linecap="round" class="BottomLeft"></path><path d="M982 79L1367 -306" stroke-width="6" stroke="url(#SvgjsLinearGradient1001)" stroke-linecap="round" class="TopRight"></path><path d="M1220 80L1054 246" stroke-width="6" stroke="url(#SvgjsLinearGradient1005)" stroke-linecap="round" class="TopRight"></path><path d="M1047 103L860 290" stroke-width="6" stroke="url(#SvgjsLinearGradient1004)" stroke-linecap="round" class="TopRight"></path><path d="M1001 434L1373 62" stroke-width="10" stroke="url(#SvgjsLinearGradient1003)" stroke-linecap="round" class="BottomLeft"></path><path d="M683 236L1100 -181" stroke-width="6" stroke="url(#SvgjsLinearGradient1003)" stroke-linecap="round" class="BottomLeft"></path><path d="M429 284L709 4" stroke-width="10" stroke="url(#SvgjsLinearGradient1004)" stroke-linecap="round" class="TopRight"></path><path d="M888 3L645 246" stroke-width="6" stroke="url(#SvgjsLinearGradient1006)" stroke-linecap="round" class="BottomLeft"></path><path d="M1374 550L1624 300" stroke-width="10" stroke="url(#SvgjsLinearGradient1005)" stroke-linecap="round" class="TopRight"></path><path d="M1265 407L1084 588" stroke-width="8" stroke="url(#SvgjsLinearGradient1006)" stroke-linecap="round" class="BottomLeft"></path><path d="M1369 259L1229 399" stroke-width="8" stroke="url(#SvgjsLinearGradient1003)" stroke-linecap="round" class="BottomLeft"></path><path d="M421 116L96 441" stroke-width="8" stroke="url(#SvgjsLinearGradient1006)" stroke-linecap="round" class="BottomLeft"></path><path d="M1220 117L1074 263" stroke-width="10" stroke="url(#SvgjsLinearGradient1003)" stroke-linecap="round" class="BottomLeft"></path><path d="M143 260L-182 585" stroke-width="6" stroke="url(#SvgjsLinearGradient1002)" stroke-linecap="round" class="BottomLeft"></path><path d="M238 216L507 -53" stroke-width="6" stroke="url(#SvgjsLinearGradient1003)" stroke-linecap="round" class="BottomLeft"></path><path d="M1183 487L954 716" stroke-width="10" stroke="url(#SvgjsLinearGradient1002)" stroke-linecap="round" class="BottomLeft"></path><path d="M982 127L590 519" stroke-width="10" stroke="url(#SvgjsLinearGradient1004)" stroke-linecap="round" class="TopRight"></path><path d="M1248 292L1028 512" stroke-width="8" stroke="url(#SvgjsLinearGradient1005)" stroke-linecap="round" class="TopRight"></path><path d="M1168 150L999 319" stroke-width="10" stroke="url(#SvgjsLinearGradient1003)" stroke-linecap="round" class="BottomLeft"></path><path d="M1261 428L1610 79" stroke-width="6" stroke="url(#SvgjsLinearGradient1001)" stroke-linecap="round" class="TopRight"></path><path d="M1022 342L777 587" stroke-width="8" stroke="url(#SvgjsLinearGradient1002)" stroke-linecap="round" class="BottomLeft"></path><path d="M971 502L1217 256" stroke-width="6" stroke="url(#SvgjsLinearGradient1002)" stroke-linecap="round" class="BottomLeft"></path><path d="M1038 241L822 457" stroke-width="10" stroke="url(#SvgjsLinearGradient1001)" stroke-linecap="round" class="TopRight"></path><path d="M754 75L348 481" stroke-width="8" stroke="url(#SvgjsLinearGradient1006)" stroke-linecap="round" class="BottomLeft"></path></g><defs><mask id="SvgjsMask1000"><rect width="1431" height="560" fill="#ffffff"></rect></mask><linearGradient x1="0%" y1="100%" x2="100%" y2="0%" id="SvgjsLinearGradient1001"><stop stop-color="rgba(75, 107, 225, 0)" offset="0"></stop><stop stop-color="rgba(75, 107, 225, 1)" offset="1"></stop></linearGradient><linearGradient x1="100%" y1="0%" x2="0%" y2="100%" id="SvgjsLinearGradient1002"><stop stop-color="rgba(137, 102, 179, 0)" offset="0"></stop><stop stop-color="rgba(137, 102, 179, 1)" offset="1"></stop></linearGradient><linearGradient x1="100%" y1="0%" x2="0%" y2="100%" id="SvgjsLinearGradient1003"><stop stop-color="rgba(75, 107, 225, 0)" offset="0"></stop><stop stop-color="rgba(75, 107, 225, 1)" offset="1"></stop></linearGradient><linearGradient x1="0%" y1="100%" x2="100%" y2="0%" id="SvgjsLinearGradient1004"><stop stop-color="rgba(137, 102, 179, 0)" offset="0"></stop><stop stop-color="rgba(137, 102, 179, 1)" offset="1"></stop></linearGradient><linearGradient x1="0%" y1="100%" x2="100%" y2="0%" id="SvgjsLinearGradient1005"><stop stop-color="rgba(217, 94, 110, 0)" offset="0"></stop><stop stop-color="rgba(217, 94, 110, 1)" offset="1"></stop></linearGradient><linearGradient x1="100%" y1="0%" x2="0%" y2="100%" id="SvgjsLinearGradient1006"><stop stop-color="rgba(217, 94, 110, 0)" offset="0"></stop><stop stop-color="rgba(217, 94, 110, 1)" offset="1"></stop></linearGradient></defs></svg>